<?xml version="1.0" encoding="utf-8"?>
<!-- Generator: Adobe Illustrator 24.0.2, SVG Export Plug-In . SVG Version: 6.00 Build 0)  -->
<svg version="1.1" id="Layer_1" xmlns="http://www.w3.org/2000/svg" xmlns:xlink="http://www.w3.org/1999/xlink" x="0px" y="0px"
	 viewBox="0 0 1366 768" style="enable-background:new 0 0 1366 768;" xml:space="preserve">
<style type="text/css">
	.st0{fill:#FFFFFF;stroke:#000000;stroke-width:0.25;stroke-miterlimit:10;}
</style>
<path class="st0" d="M1355.7,170.8h-169.9l-126.3,1.9c-0.9,0-1.8,0.1-2.8,0.2H804.5l8.1-39.8l1.4-9.4c10.3-70.3,54-119.4,103.7-122
	c0.8-0.2,1.5-0.3,2.2-0.3h331C1344.3,19.3,1387.3,86.1,1355.7,170.8z"/>
<polygon class="st0" points="691.4,180.5 158.3,180.5 205.2,0 744.7,0 "/>
<polygon class="st0" points="664.2,286.3 614.6,461.5 337,461.5 258.4,760.2 0,760.2 79,461.5 79,461.5 128.4,286.3 "/>
<path class="st0" d="M1284.7,581.2l-6.2,29.5c-20.2,113-69.9,157.3-151.4,157.3H923.9l-5.7,0l-167.7-1.3c-1.1,0-2.1-0.2-3-0.7
	c-38.8-5.3-70.6-53.5-71.5-95.1c-0.1-4.3,0.5-8.5,1.5-12.6l19.1-78.2H957c15.3,0,15.3,0,0,0L1284.7,581.2z"/>
<polygon class="st0" points="936.5,228.6 873.9,523.3 710.7,523.3 783.4,228.6 "/>
</svg>
