<?xml version="1.0" encoding="utf-8"?>
<!-- Generator: Adobe Illustrator 24.0.2, SVG Export Plug-In . SVG Version: 6.00 Build 0)  -->
<svg version="1.1" id="Layer_1" xmlns="http://www.w3.org/2000/svg" xmlns:xlink="http://www.w3.org/1999/xlink" x="0px" y="0px"
	 viewBox="0 0 792 612" style="enable-background:new 0 0 792 612;" xml:space="preserve">
<style type="text/css">
	.st0{fill:#FFFFFF;stroke:#000000;stroke-width:0.25;stroke-miterlimit:10;}
</style>
<path class="st0" d="M562.84,250.88h-45.08l-33.51,0.48c-0.24,0-0.48,0.02-0.73,0.06h-66.94l2.14-9.92l0.36-2.35
	c2.73-17.52,14.34-29.74,27.51-30.38c0.2-0.06,0.39-0.08,0.59-0.08h87.82C559.81,213.15,571.23,229.79,562.84,250.88z"/>
<polygon class="st0" points="386.57,253.3 245.14,253.3 257.57,208.34 400.71,208.34 "/>
<polygon class="st0" points="379.35,279.67 366.2,323.3 292.54,323.3 271.7,397.72 203.13,397.72 224.08,323.3 224.08,323.3 
	237.2,279.67 "/>
<path class="st0" d="M544.01,353.12l-1.64,7.36c-5.35,28.16-18.54,39.18-40.18,39.18h-53.91l-1.5-0.01l-44.5-0.32
	c-0.28,0-0.55-0.06-0.79-0.17c-10.29-1.32-18.74-13.33-18.97-23.68c-0.03-1.06,0.12-2.12,0.39-3.15l5.08-19.47h69.07
	c4.07,0.01,4.07,0.01,0,0L544.01,353.12z"/>
<polygon class="st0" points="451.61,265.3 434.99,338.7 391.71,338.7 410.99,265.3 "/>
</svg>
